<svg xmlns="http://www.w3.org/2000/svg" viewBox="0 0 512 512"><path d="M354.009 19.483C223.631-34.519 73.625 27.613 19.621 157.991c-26.161 63.158-26.161 132.722 0 195.879 26.16 63.158 75.35 112.347 138.508 138.508C189.712 505.46 222.885 512 256.069 512c33.175 0 66.366-6.542 97.939-19.621 63.158-26.16 112.348-75.35 138.508-138.508 54.004-130.377-8.131-280.383-138.507-334.388zM468.806 344.05c-23.537 56.824-67.794 101.081-124.618 124.619-56.824 23.537-119.415 23.537-176.239 0C50.646 420.079-5.258 285.115 43.33 167.812 80.025 79.225 165.96 25.663 256.369 25.663c29.308 0 59.102 5.636 87.819 17.531C461.492 91.782 517.394 226.746 468.806 344.05z"/><path d="M290.935 171.753c-22.485-9.313-47.25-9.313-69.735 0s-39.997 26.826-49.311 49.31c-19.226 46.416 2.894 99.821 49.31 119.046 11.366 4.708 23.15 6.937 34.75 6.937 35.772-.001 69.78-21.198 84.298-56.247 19.225-46.415-2.896-99.82-49.312-119.046zm26.786 109.716h.001c-14.083 33.995-53.195 50.198-87.193 36.116-33.995-14.082-50.196-53.197-36.115-87.192 6.821-16.468 19.648-29.295 36.116-36.116 8.234-3.411 16.885-5.116 25.538-5.116 8.651 0 17.302 1.705 25.536 5.116 33.997 14.082 50.2 53.197 36.117 87.192z"/><path d="M293.064 240.607c-4.092-9.882-11.79-17.578-21.672-21.672-9.883-4.093-20.766-4.092-30.647 0-9.882 4.093-17.578 11.79-21.672 21.672s-4.093 20.767 0 30.647c4.093 9.882 11.79 17.578 21.672 21.672a39.843 39.843 0 0 0 15.271 3.047c15.721.001 30.668-9.315 37.048-24.718 4.093-9.881 4.093-20.766 0-30.648zm-21.338 21.809a16.84 16.84 0 0 1-9.171 9.171 16.833 16.833 0 0 1-12.972 0 16.833 16.833 0 0 1-9.171-9.171 16.837 16.837 0 0 1 0-12.97 16.833 16.833 0 0 1 9.171-9.171c2.09-.866 4.287-1.3 6.485-1.3 2.197 0 4.395.434 6.485 1.3a16.826 16.826 0 0 1 9.171 9.171 16.828 16.828 0 0 1 .002 12.97zM423.877 311.55c-6.549-2.711-14.055.394-16.767 6.942-16.694 40.28-48.127 71.674-88.511 88.403-6.548 2.713-9.656 10.218-6.943 16.766 2.047 4.942 6.824 7.924 11.859 7.924 1.636 0 3.299-.316 4.906-.98 46.714-19.35 83.079-55.677 102.397-102.287 2.712-6.547-.396-14.054-6.941-16.768zM200.483 88.203c-2.713-6.548-10.219-9.658-16.765-6.945-46.715 19.35-83.08 55.677-102.397 102.287-2.713 6.547.395 14.053 6.942 16.767 1.607.666 3.271.98 4.908.98 5.034 0 9.811-2.982 11.859-7.922 16.693-40.28 48.127-71.674 88.509-88.403 6.546-2.71 9.655-10.217 6.944-16.764zM279.841 431.125c-.432-7.074-6.504-12.46-13.593-12.023a164.34 164.34 0 0 1-20.341.001c-7.065-.425-13.167 4.929-13.612 12.001-.445 7.073 4.929 13.167 12.001 13.612 3.859.242 7.768.364 11.701.364 3.927 0 7.875-.121 11.821-.363 7.074-.433 12.456-6.519 12.023-13.592zM267.841 67.145a190.518 190.518 0 0 0-23.523-.001c-7.074.434-12.457 6.52-12.023 13.593.434 7.073 6.524 12.453 13.594 12.023 6.843-.418 13.685-.42 20.341-.001.275.017.547.026.819.026 6.717 0 12.367-5.229 12.794-12.027.444-7.074-4.93-13.167-12.002-13.613z"/></svg>