<svg xmlns="http://www.w3.org/2000/svg" viewBox="0 0 511.999 511.999"><path d="M506.626 222.942l-74.319-54.415c.121-.717.198-1.448.198-2.199V43.487c0-7.251-5.879-13.128-13.128-13.128h-72.205c-7.249 0-13.128 5.877-13.128 13.128v53.094l-70.29-51.465a13.126 13.126 0 0 0-15.51 0L5.374 222.943c-5.85 4.284-7.121 12.498-2.837 18.348 4.284 5.85 12.499 7.121 18.348 2.837l35.608-26.071v250.455c0 7.251 5.879 13.128 13.128 13.128h133.124c.45 0 .894-.024 1.333-.067.438.045.882.067 1.333.067 7.249 0 13.128-5.877 13.128-13.128V358.63c0-20.656 16.805-37.463 37.463-37.463s37.463 16.805 37.463 37.463v109.881c0 7.251 5.879 13.128 13.128 13.128.45 0 .894-.024 1.333-.067.438.045.882.067 1.333.067h133.124c7.249 0 13.128-5.877 13.128-13.128V255.998c0-7.251-5.879-13.128-13.128-13.128-7.249 0-13.128 5.878-13.128 13.128v199.384H319.717v-96.753c0-35.135-28.584-63.719-63.719-63.719-35.135 0-63.719 28.584-63.719 63.719v96.753H82.747V198.83L255.998 71.979l235.116 172.147a13.063 13.063 0 0 0 7.744 2.536c4.042 0 8.031-1.862 10.602-5.373 4.286-5.849 3.016-14.064-2.834-18.347zm-100.377-73.495L360.3 115.805V56.614h45.949v92.833z"/></svg>