<svg xmlns="http://www.w3.org/2000/svg" viewBox="0 0 512 512"><path d="M437.02 74.982C388.667 26.628 324.38 0 256 0S123.333 26.628 74.98 74.982C26.628 123.333 0 187.619 0 256s26.628 132.667 74.98 181.019C123.333 485.372 187.62 512 256 512s132.667-26.628 181.02-74.981C485.372 388.667 512 324.381 512 256s-26.628-132.667-74.98-181.018zM256 491.602c-129.911 0-235.602-105.69-235.602-235.602S126.089 20.398 256 20.398 491.602 126.089 491.602 256 385.911 491.602 256 491.602z"/><path d="M230.502 110.172h-62.215c-5.633 0-10.199 4.567-10.199 10.199v271.258c0 5.632 4.566 10.199 10.199 10.199h62.215c5.633 0 10.199-4.566 10.199-10.199V120.371c0-5.632-4.566-10.199-10.199-10.199zM220.303 381.43h-41.817V130.57h41.817v250.86zM343.713 110.172h-62.215c-5.633 0-10.199 4.567-10.199 10.199v271.258c0 5.632 4.566 10.199 10.199 10.199h62.215c5.633 0 10.199-4.566 10.199-10.199V120.371c0-5.632-4.566-10.199-10.199-10.199zM333.514 381.43h-41.817V130.57h41.817v250.86zM410.058 394.699c-3.996-3.971-10.453-3.95-14.424.046-37.229 37.467-86.82 58.1-139.634 58.1-5.633 0-10.199 4.567-10.199 10.199s4.566 10.199 10.199 10.199c58.287 0 113.016-22.772 154.103-64.119 3.971-3.996 3.95-10.453-.045-14.425zM440.18 351.218c-4.869-2.835-11.112-1.186-13.945 3.684a196.283 196.283 0 0 1-4.413 7.217c-3.04 4.742-1.662 11.051 3.079 14.091a10.192 10.192 0 0 0 14.091-3.078 216.954 216.954 0 0 0 4.872-7.969c2.834-4.868 1.184-11.112-3.684-13.945z"/></svg>