<svg xmlns="http://www.w3.org/2000/svg" viewBox="0 0 512 512"><path d="M437.019 74.98C388.667 26.628 324.381 0 256 0S123.333 26.628 74.982 74.98C26.628 123.333 0 187.62 0 256s26.628 132.667 74.982 181.02C123.333 485.372 187.619 512 256 512s132.667-26.628 181.019-74.98C485.372 388.667 512 324.38 512 256s-26.628-132.667-74.981-181.02zM256 491.602c-129.911 0-235.602-105.69-235.602-235.602S126.089 20.398 256 20.398 491.602 126.089 491.602 256 385.911 491.602 256 491.602z"/><path d="M382.477 247.846L201.951 112.217a10.201 10.201 0 0 0-16.326 8.154v271.258a10.197 10.197 0 0 0 16.326 8.154l180.526-135.629a10.2 10.2 0 0 0 0-16.308zM206.024 371.209V140.791L359.371 256 206.024 371.209zM410.058 394.7c-3.996-3.971-10.452-3.951-14.425.045-37.229 37.467-86.819 58.1-139.633 58.1-5.632 0-10.199 4.566-10.199 10.199s4.567 10.199 10.199 10.199c58.287 0 113.016-22.772 154.104-64.119 3.97-3.996 3.949-10.453-.046-14.424zM440.178 351.217c-4.868-2.832-11.111-1.183-13.945 3.684a198.819 198.819 0 0 1-4.411 7.216c-3.042 4.742-1.664 11.051 3.076 14.092a10.153 10.153 0 0 0 5.498 1.617c3.358 0 6.647-1.657 8.593-4.694a214.656 214.656 0 0 0 4.873-7.97c2.835-4.868 1.184-11.112-3.684-13.945z"/></svg>