<svg height="512pt" viewBox="0 0 512 512.001" width="512pt" xmlns="http://www.w3.org/2000/svg"><path d="M502 348H366V222c0-5.523-4.477-10-10-10h-17.422a21.126 21.126 0 0 0-1.043-7.055l-19.187-58.61 50.07-36.21c7.375-5.336 10.328-14.379 7.527-23.035-2.804-8.66-10.496-14.258-19.601-14.258H294.53l-18.933-58.57C272.8 5.598 265.105 0 256 0s-16.8 5.598-19.602 14.266l-18.933 58.57h-61.813c-9.101 0-16.793 5.594-19.597 14.254-2.801 8.66.152 17.7 7.527 23.035l50.07 36.21-19.187 58.61a21.145 21.145 0 0 0-1.047 7.055H156c-5.523 0-10 4.477-10 10v126H10c-5.523 0-10 4.477-10 10v144c0 5.523 4.477 10 10 10h492c5.523 0 10-4.477 10-10v-32c0-5.523-4.477-10-10-10s-10 4.477-10 10v22H366V368h126v22c0 5.523 4.477 10 10 10s10-4.477 10-10v-32c0-5.523-4.477-10-10-10zM193.477 211.164l21.453-65.543a9.997 9.997 0 0 0-3.645-11.215l-55.98-40.484c-.246-.176-.356-.258-.22-.672.134-.414.27-.414.571-.414h69.09a10 10 0 0 0 9.512-6.926l21.172-65.496c.093-.285.136-.414.57-.414.438 0 .477.129.57.414l21.172 65.496a9.998 9.998 0 0 0 9.516 6.922h69.09c.297 0 .433 0 .57.414.133.418.023.496-.219.672l-55.984 40.488a10.003 10.003 0 0 0-3.645 11.215l21.457 65.543c.09.285.133.414-.218.672-.352.258-.465.176-.707 0l-55.707-40.66a9.98 9.98 0 0 0-5.895-1.922 10 10 0 0 0-5.898 1.922l-55.704 40.66c-.246.176-.355.258-.707 0-.351-.254-.308-.387-.214-.672zM256 191.633L283.902 212h-55.804zM20 368h126v124H20zm146-10V232h27.355c.23.008.461.027.692.027.226 0 .457-.02.687-.027H317.27c.457.016.91.016 1.367 0H346v260H166zm0 0M448 34.414c5.523 0 10-4.477 10-10V10c0-5.523-4.477-10-10-10s-10 4.477-10 10v14.414c0 5.523 4.477 10 10 10zm0 0M448 100c5.523 0 10-4.477 10-10V75.586c0-5.523-4.477-10-10-10s-10 4.477-10 10V90c0 5.523 4.477 10 10 10zm0 0M473.586 60H488c5.523 0 10-4.477 10-10s-4.477-10-10-10h-14.414c-5.524 0-10 4.477-10 10s4.476 10 10 10zm0 0M408 60h14.414c5.524 0 10-4.477 10-10s-4.476-10-10-10H408c-5.523 0-10 4.477-10 10s4.477 10 10 10zm0 0M64 159.762c5.523 0 10-4.48 10-10v-14.414c0-5.524-4.477-10-10-10s-10 4.476-10 10v14.414c0 5.52 4.477 10 10 10zm0 0"/><path d="M64 225.348c5.523 0 10-4.48 10-10V200.93c0-5.524-4.477-10-10-10s-10 4.476-10 10v14.418c0 5.52 4.477 10 10 10zm0 0M89.586 185.348H104c5.523 0 10-4.48 10-10 0-5.524-4.477-10-10-10H89.586c-5.523 0-10 4.476-10 10 0 5.52 4.477 10 10 10zm0 0M24 185.348h14.414c5.523 0 10-4.48 10-10 0-5.524-4.477-10-10-10H24c-5.523 0-10 4.476-10 10 0 5.52 4.477 10 10 10zm0 0M502 420a10.08 10.08 0 0 0-7.07 2.93c-1.86 1.86-2.93 4.441-2.93 7.07s1.07 5.21 2.93 7.07c1.86 1.86 4.441 2.93 7.07 2.93s5.21-1.07 7.07-2.93c1.86-1.86 2.93-4.441 2.93-7.07s-1.07-5.21-2.93-7.07A10.08 10.08 0 0 0 502 420zm0 0"/></svg>