<svg xmlns="http://www.w3.org/2000/svg" viewBox="0 0 300 300"><path d="M150 0C67.157 0 0 67.157 0 150c0 82.841 67.157 150 150 150 82.838 0 150-67.162 150-150C300 67.159 232.838 0 150 0zm67.343 203.764c0 3.704-1.979 7.132-5.187 8.982a10.388 10.388 0 0 1-5.187 1.393c-1.792 0-3.582-.467-5.187-1.393l-81.103-46.823a10.368 10.368 0 0 1-2.594-2.153v35.955c0 9.498-7.7 17.198-17.198 17.198s-17.198-7.7-17.198-17.198v-89.078h.002c0-9.498 7.7-17.198 17.198-17.198 9.498 0 17.198 7.7 17.198 17.198v39.465c.739-.84 1.6-1.58 2.594-2.155l81.1-46.823a10.376 10.376 0 0 1 15.562 8.984v93.646z"/></svg>