<svg viewBox="-66 0 512 512.001" xmlns="http://www.w3.org/2000/svg"><path d="M135.29 463.266c-10.567 10.57-27.712 16.902-45.864 16.941h-.184c-19.504 0-37.168-6.918-49.742-19.496-12.617-12.613-19.54-30.348-19.496-49.922.039-18.152 6.375-35.3 16.941-45.867l7.188-7.188c9.137 8.145 20.597 12.227 32.312 12.227 12.387 0 25.055-4.563 35.532-13.7l178.421-155.62a100.668 100.668 0 0 0 52.762-22.184 9.972 9.972 0 0 0 6.317 2.246 9.968 9.968 0 0 0 7.07-2.93c3.656-3.656 3.89-9.445.695-13.37 32.41-39.5 30.188-98.098-6.687-134.97-36.871-36.874-95.47-39.101-134.97-6.687-3.929-3.195-9.714-2.96-13.37.695-3.664 3.66-3.89 9.457-.684 13.387a100.593 100.593 0 0 0-22.183 52.758l-13.196 15.129c-3.632 4.164-3.199 10.48.961 14.113 4.164 3.629 10.48 3.195 14.114-.965l10.535-12.082 82.441 82.442L98.832 341.188c-13.121 11.44-31.441 11.64-42.621.464l-17.875-17.875c-11.176-11.175-10.977-29.5.465-42.617l97.09-111.316c3.632-4.164 3.199-10.48-.961-14.114-4.16-3.628-10.48-3.195-14.114.965l-97.09 111.317c-18.445 21.144-18.242 51.199.465 69.91l5.735 5.73-7.125 7.125C8.363 365.215.055 387.07 0 410.742c-.055 24.938 8.95 47.707 25.355 64.113 16.356 16.356 39.036 25.356 63.883 25.356h.23c23.673-.055 45.528-8.363 59.966-22.8 3.906-3.907 3.906-10.24 0-14.145-3.907-3.903-10.239-3.903-14.145 0zM200.093 85.82a80.625 80.625 0 0 1 15.633-34.722L328.89 164.262a80.678 80.678 0 0 1-34.723 15.636zm136.32-42.246c29.05 29.055 31.242 74.922 6.617 106.54L229.875 36.956c31.617-24.621 77.488-22.434 106.54 6.617zm0 0"/><path d="M362.027 322.566c-15.906-15.906-35.16-21.273-55.675-15.523-17.934 5.023-32.004 17.168-38.797 23.96l-29.586 29.587-31.95 31.953c-.003 0-.007.004-.011.008l-21.945 21.945c-3.907 3.906-3.907 10.238 0 14.145a9.968 9.968 0 0 0 7.07 2.93 9.961 9.961 0 0 0 7.07-2.93l21.938-21.938c.004 0 .007-.004.011-.008l61.547-61.547c4.356-4.355 15.996-14.906 30.051-18.843 13.523-3.797 25.34-.387 36.137 10.406 21.21 21.215 10.523 43.851-1.703 58.777l-6.07-6.07a10 10 0 0 0-14.141 0l-53.094 53.09c-5.473 5.476-8.488 12.773-8.488 20.555 0 4.296.925 8.445 2.672 12.226l-19.641 19.637c-3.902 3.906-3.902 10.238 0 14.144 1.953 1.953 4.516 2.93 7.074 2.93s5.117-.977 7.07-2.93l19.641-19.636a29.168 29.168 0 0 0 12.227 2.68c7.441 0 14.882-2.833 20.55-8.5l53.09-53.09c3.906-3.907 3.906-10.239 0-14.145l-6.726-6.73c6.543-7.81 14.066-18.919 17.605-31.84 5.527-20.196.02-39.297-15.926-55.243zM299.84 469.47c-3.531 3.531-9.281 3.535-12.817 0-1.695-1.696-2.628-3.973-2.628-6.41 0-2.434.933-4.711 2.628-6.407l46.02-46.02 12.816 12.817zm0 0M133.637 218.371c0 7.492 2.906 14.524 8.18 19.8 5.46 5.458 12.628 8.188 19.8 8.188 7.172 0 14.344-2.726 19.801-8.187l25.457-25.457c5.277-5.278 8.184-12.309 8.184-19.8 0-7.497-2.907-14.528-8.18-19.806-10.922-10.918-28.684-10.918-39.602 0l-25.46 25.461c-5.274 5.274-8.18 12.305-8.18 19.801zm22.324-5.656l25.457-25.461a7.989 7.989 0 0 1 5.66-2.34 7.98 7.98 0 0 1 5.656 2.34c1.496 1.496 2.32 3.508 2.32 5.66a7.948 7.948 0 0 1-2.32 5.656l-25.457 25.457c-3.12 3.121-8.199 3.121-11.316 0a7.945 7.945 0 0 1-2.324-5.656c0-2.152.828-4.16 2.324-5.656zm0 0M140.664 149.148a9.962 9.962 0 0 0 6.574 2.47 9.982 9.982 0 0 0 7.54-3.427l.175-.203c3.633-4.164 3.203-10.48-.96-14.113-4.161-3.629-10.481-3.203-14.11.96l-.176.204c-3.633 4.16-3.203 10.48.957 14.11zm0 0M163.742 434.813l-.187.19c-3.907 3.907-3.907 10.24 0 14.145 1.953 1.954 4.511 2.93 7.07 2.93s5.117-.976 7.07-2.93l.192-.191c3.906-3.902 3.906-10.234 0-14.145-3.907-3.902-10.239-3.902-14.145 0zm0 0"/></svg>