<svg xmlns="http://www.w3.org/2000/svg" viewBox="0 0 512 512"><path d="M437.019 74.981C388.667 26.628 324.38 0 256 0c-54.62 0-106.743 16.965-150.734 49.059-4.462 3.256-5.44 9.511-2.185 13.973 3.255 4.462 9.511 5.44 13.973 2.185C157.599 35.636 205.646 20 256 20c130.131 0 236 105.869 236 236S386.131 492 256 492 20 386.131 20 256c0-47.138 13.851-92.637 40.054-131.58 3.083-4.582 1.868-10.796-2.714-13.879s-10.796-1.868-13.879 2.714C15.028 155.51 0 204.87 0 256c0 68.38 26.628 132.667 74.981 181.019C123.333 485.372 187.62 512 256 512s132.667-26.628 181.019-74.981C485.372 388.667 512 324.38 512 256s-26.628-132.667-74.981-181.019z"/><path d="M83.358 80.564c-4.006-3.803-10.336-3.639-14.138.366l-.208.222c-3.762 4.044-3.499 10.337.545 14.098a9.931 9.931 0 0 0 6.789 2.661c2.701 0 5.399-1.082 7.378-3.209 3.803-4.006 3.639-10.335-.366-14.138zM381.236 260.241c-25.89-15.127-55.379-25.902-87.65-32.025-25.328-4.803-52.424-6.767-80.532-5.838-46.599 1.535-79.973 10.344-83.643 11.349-15.047 4.147-23.927 19.771-19.797 34.827 4.13 15.051 19.748 23.953 34.768 19.854 1.249-.333 31.047-8.169 71.449-9.401 36.942-1.125 90.651 3.209 136.811 30.188a28.39 28.39 0 0 0 14.275 3.867c10.038 0 19.421-5.381 24.489-14.042l.005-.008c7.881-13.497 3.316-30.89-10.175-38.771zm-7.094 28.683a8.402 8.402 0 0 1-7.225 4.138c-1.484 0-2.9-.386-4.195-1.141-45.796-26.767-97.776-33.071-136.574-33.071-3.77 0-7.421.059-10.925.166-42.688 1.302-74.655 9.71-76.063 10.086-4.441 1.214-9.043-1.409-10.259-5.84-1.216-4.434 1.397-9.034 5.807-10.25 1.364-.374 33.93-9.162 79.005-10.646 26.639-.882 52.261.97 76.145 5.499 30.023 5.697 57.372 15.67 81.289 29.645 3.97 2.32 5.313 7.439 2.995 11.414z"/><path d="M431.934 208.839c-2.203-8.396-7.544-15.434-15.041-19.816-31.519-18.419-67.448-31.543-106.788-39.008-30.901-5.859-63.969-8.252-98.288-7.126-58.395 1.929-100.322 13.364-102.066 13.847-8.371 2.305-15.343 7.732-19.631 15.281-4.287 7.548-5.379 16.315-3.073 24.684 2.305 8.371 7.731 15.343 15.28 19.631 7.547 4.287 16.313 5.379 24.688 3.073 1.452-.396 146.48-38.891 257.075 25.74a32.469 32.469 0 0 0 16.384 4.447c11.52 0 22.28-6.172 28.079-16.105 4.383-7.496 5.584-16.25 3.381-24.648zm-20.65 14.561c-2.23 3.82-6.372 6.193-10.81 6.193-2.232 0-4.345-.575-6.287-1.711-54.12-31.629-115.245-40.266-165.869-40.266-60.365 0-105.799 12.281-106.615 12.509a12.422 12.422 0 0 1-9.498-1.182 12.417 12.417 0 0 1-5.876-7.551 12.424 12.424 0 0 1 1.181-9.497 12.422 12.422 0 0 1 7.562-5.879c1.663-.46 41.362-11.286 97.405-13.137 32.847-1.083 64.443 1.201 93.901 6.787 37.092 7.038 70.88 19.36 100.423 36.625 2.885 1.686 4.94 4.394 5.787 7.624s.385 6.596-1.304 9.485zM365.262 339.492c-1.726-6.584-5.915-12.104-11.795-15.542-22.004-12.86-47.067-22.016-74.491-27.216-21.495-4.08-44.483-5.749-68.328-4.959-40.635 1.339-69.771 9.305-70.973 9.638-13.53 3.725-21.516 17.771-17.804 31.312 3.713 13.546 17.759 21.55 31.287 17.847.253-.069 25.674-6.833 59.934-7.874 30.972-.939 76.002 2.676 114.653 25.263a25.472 25.472 0 0 0 12.847 3.488c9.024 0 17.46-4.838 22.017-12.626v-.001c3.438-5.878 4.38-12.743 2.653-19.33zm-19.916 9.232a5.458 5.458 0 0 1-4.754 2.724 5.39 5.39 0 0 1-2.753-.753c-38.956-22.766-83.11-28.13-116.056-28.13-3.211 0-6.316.052-9.3.14-37.082 1.126-64.322 8.496-64.585 8.568a5.492 5.492 0 0 1-6.739-3.838 5.496 5.496 0 0 1 3.843-6.747c.276-.077 28.032-7.666 66.307-8.926 22.373-.742 43.887.814 63.94 4.62 25.178 4.774 48.099 13.129 68.126 24.833a5.461 5.461 0 0 1 2.542 3.349 5.451 5.451 0 0 1-.571 4.16zM256.501 447.177H256c-5.523 0-10 4.477-10 10s4.477 10 10 10h.53c5.523-.016 9.987-4.506 9.971-10.029-.017-5.513-4.49-9.971-10-9.971zM384.089 411.459c-3.3-4.428-9.565-5.343-13.994-2.045-23.191 17.277-50.416 29.207-78.73 34.501-5.429 1.015-9.007 6.238-7.992 11.667.899 4.808 5.098 8.164 9.818 8.164.61 0 1.228-.056 1.851-.172 31.294-5.851 61.379-19.033 87.002-38.121 4.429-3.3 5.344-9.565 2.045-13.994z"/></svg>